inDegrees=no
num_controls=7
num_derivatives=13
num_iterations=132
num_multipliers=7
num_parameters=0
num_slacks=7
num_states=26
objective=0.477034
objective_accelerations=0.044163
objective_balance=0.003702
objective_effort=0.040522
objective_height=0.382980
objective_ligament=0.005667
solver_duration=1836.231508
status=Solve_Succeeded
success=true
DataType=double
version=3
OpenSimVersion=4.5
endheader
time	/jointset/ground_pelvis/pelvis_tilt/value	/jointset/ground_pelvis/pelvis_tx/value	/jointset/ground_pelvis/pelvis_ty/value	/jointset/hip_l/hip_flexion_l/value	/jointset/hip_l/hip_adduction_l/value	/jointset/hip_l/hip_rotation_l/value	/jointset/back/lumbar_extension/value	/jointset/patellofemoral_l/patellar_flexion_l/value	/jointset/knee_l/knee_flexion_l/value	/jointset/knee_l/knee_adduction_l/value	/jointset/knee_l/knee_rotation_l/value	/jointset/ankle_l/ankle_angle_l/value	/jointset/subtalar_l/subtalar_angle_l/value	/jointset/ground_pelvis/pelvis_tilt/speed	/jointset/ground_pelvis/pelvis_tx/speed	/jointset/ground_pelvis/pelvis_ty/speed	/jointset/hip_l/hip_flexion_l/speed	/jointset/hip_l/hip_adduction_l/speed	/jointset/hip_l/hip_rotation_l/speed	/jointset/back/lumbar_extension/speed	/jointset/patellofemoral_l/patellar_flexion_l/speed	/jointset/knee_l/knee_flexion_l/speed	/jointset/knee_l/knee_adduction_l/speed	/jointset/knee_l/knee_rotation_l/speed	/jointset/ankle_l/ankle_angle_l/speed	/jointset/subtalar_l/subtalar_angle_l/speed	/forceset/tau_hip_flexion_l	/forceset/tau_hip_adduction_l	/forceset/tau_hip_rotation_l	/forceset/tau_knee_flexion_l	/forceset/tau_ankle_angle_l	/forceset/tau_subtalar_angle_l	/forceset/tau_lumbar_extension	lambda_cid13_p0	lambda_cid13_p1	lambda_cid13_p2	lambda_cid13_p3	lambda_cid13_p4	lambda_cid13_p5	lambda_cid14_p0	/jointset/ground_pelvis/pelvis_tilt/accel	/jointset/ground_pelvis/pelvis_tx/accel	/jointset/ground_pelvis/pelvis_ty/accel	/jointset/hip_l/hip_flexion_l/accel	/jointset/hip_l/hip_adduction_l/accel	/jointset/hip_l/hip_rotation_l/accel	/jointset/back/lumbar_extension/accel	/jointset/patellofemoral_l/patellar_flexion_l/accel	/jointset/knee_l/knee_flexion_l/accel	/jointset/knee_l/knee_adduction_l/accel	/jointset/knee_l/knee_rotation_l/accel	/jointset/ankle_l/ankle_angle_l/accel	/jointset/subtalar_l/subtalar_angle_l/accel	gamma_cid13_p0	gamma_cid13_p1	gamma_cid13_p2	gamma_cid13_p3	gamma_cid13_p4	gamma_cid13_p5	gamma_cid14_p0
0.5	-0.0951788102511105	-0.04317067989392209	0.8068273328180792	0.9312591272774065	-0.3297293229371077	-0.07934451219471189	-0.790939486086637	0.9181796522394849	0.9181796522394782	-0.1040481208217154	-0.1744834313753372	0.1458395305774659	0.01211329601128707	-0.1289764271743391	-0.1603422483609929	-0.4143942384666469	1.59518019147963	-0.03006987812174743	0.561503134350173	-0.8342876136709714	1.770237823770452	1.770237823770264	0.148015033927149	0.0002724084038832362	0.4244015426528643	0.1112146725823113	-0.2710223719682317	0.01681338663699694	-0.004658098742581127	-0.2487895335216636	0.08901604861868549	0.04842889546126537	0.3275361863612761	-15.43709370889193	-20.04757964209207	4.704004290005093	-9.787571332269572	-701.7469063879012	-78.27896028878612	-9.880813924107326	0.2785378581158163	0.6771900191720824	-0.1893132634236948	-1.506880233178693	0.3286151983962168	-0.5055682823481995	1.895017322051646	-1.412632883552507	-1.412632883552507	-0.2214206952895026	-0.005268761561601411	-0.2533201784922163	0.3368216974228692	-2.454324825034113e-07	-1.351072994657297e-07	1.4743165217833e-06	1.392383957974494e-07	-2.691436413460003e-07	-8.162358744908422e-08	-2.087967013360337e-07
0.51	-0.0964544626286668	-0.04474021861018487	0.8026748362435689	0.9471332350090427	-0.3300144058660857	-0.07375386823610797	-0.7991867848993969	0.93580868683399	0.935808686833962	-0.1025815662967772	-0.1744808360366786	0.1500698579160138	0.01324102487669026	-0.1261340962742729	-0.1535643002086469	-0.4160112851783211	1.579423950710889	-0.02695558674826812	0.5565616163865978	-0.8150902451757179	1.755320840876105	1.755320840876068	0.1452904206924425	0.0002445111545219016	0.4215950346563427	0.1143028213241652	-0.2771331790917329	0.01715104558835694	-0.004802538588901317	-0.2524509183981669	0.08814922876964931	0.04842459672297022	0.3336794384020447	-15.9741853219182	-19.89414226932809	4.613828886569157	-9.585310060860477	-706.2166969407741	-78.0684056594544	-9.16343907820716	0.2900504001387447	0.6783045502459872	-0.133883785299233	-1.642637122245	0.3013023926650702	-0.4982403583918681	1.944382168979106	-1.568428270012925	-1.568428269990192	-0.298789532723012	-0.001583707060747042	-0.3046465485358841	0.2904151111947654	-2.361909898945048e-07	-1.225952609588072e-07	1.442399003676519e-06	1.364238847423773e-07	-2.561485161447455e-07	-5.169426737628281e-08	-2.039728209337998e-07
0.52	-0.09770109775838329	-0.04624193637752803	0.7985089725198901	0.9628432521082875	-0.3302686526241616	-0.06821459881814432	-0.8072396529160604	0.9532811121440244	0.9532811121439755	-0.1011424194832175	-0.1744785263706007	0.1542700540869357	0.01439875595923761	-0.1231729776067459	-0.1467780585770685	-0.4170676683003952	1.562362065001218	-0.023902643941137	0.5512282262218344	-0.7954014544517947	1.738915966876276	1.738915966876391	0.1425334916512645	0.000215273887667496	0.4183753091276713	0.1172151160111443	-0.283243986215236	0.01748870453971829	-0.004946978435221176	-0.2561123032746704	0.0872824089206134	0.04842029798467674	0.3398226904428113	-16.51347618453325	-19.74038488232891	4.523678118958499	-9.426521163575616	-710.7523229515451	-77.90883847459624	-8.447898877519545	0.3022954116079195	0.6788487150186161	-0.0771805455036315	-1.768009221364812	0.3163454851265691	-0.5839427225858765	1.993301767785534	-1.710211104648715	-1.710211104648719	-0.2278838565838252	-0.005536765060233122	-0.3359636849221349	0.301650886447919	-2.304750904087302e-07	-1.544074066609946e-07	1.398603873244882e-06	1.27840780385206e-07	-2.473684324599431e-07	-3.50069759992827e-08	-2.033061816456925e-07
0.53	-0.09891756716502526	-0.04767580237214487	0.7943353683353298	0.9783762400693682	-0.3304926964911322	-0.06273075469170271	-0.8150933233043788	0.9705821827526175	0.9705821827525773	-0.09973087054780413	-0.1744766773552337	0.1584360534914375	0.01558471609618695	-0.1201046619515493	-0.139998645003632	-0.417557584142803	1.544027397903996	-0.02091678473091787	0.545476988195411	-0.775264609612376	1.721060713802463	1.721060713802623	0.1397753932975707	0.0001533577720072547	0.4147622054504025	0.1199478670917898	-0.2890790077282624	0.01768526842219013	-0.005046015319449119	-0.25991171077984	0.08648521100879338	0.04829974085745975	0.3456980019153292	-17.03200041861439	-19.53284503673996	4.417038773829089	-9.202576141872733	-715.1970531634076	-77.69438012202015	-7.737052530391861	0.3115143259952822	0.6769866465195509	-0.02060798459711414	-1.897443174440801	0.2879246694906734	-0.5804428893864005	2.034077881875835	-1.858757973541074	-1.85875797353422	-0.2999174361887724	-0.006421953364933542	-0.3833385391292264	0.2545966401995385	-2.218170354737463e-07	-1.591183759732884e-07	1.355519712080443e-06	1.222831432509679e-07	-2.359769692755081e-07	-1.203993443703489e-08	-1.991948805414132e-07
0.54	-0.1001028704784096	-0.04904197443742453	0.790159722816148	0.9937196318153696	-0.3306872380598974	-0.05730636865486701	-0.8227435848363316	0.9876975857175139	0.9876975857174819	-0.09834693151821204	-0.174475428084732	0.1625640508931666	0.01679710562820806	-0.1169397589555703	-0.1332392727096345	-0.4174759352247234	1.52444282198518	-0.01800218429985463	0.5393366083003545	-0.7547196831787317	1.70178243813691	1.701782438137117	0.1370115104868123	9.532491450744472e-05	0.4107749085731358	0.1225009950255029	-0.2949140292412906	0.01788183230466336	-0.005145052203676556	-0.2637111182850099	0.0856880130969736	0.04817918373024446	0.3515733133878453	-17.55251275922569	-19.32734419048368	4.313452365732015	-9.025636343699812	-719.7001477328464	-77.53307593263595	-7.052410456633469	0.3216128797643425	0.6748404591308808	0.03713240659385376	-2.017990985683545	0.3020937292953835	-0.6617710963125131	2.07491808663058	-1.994815622996586	-1.994815622996587	-0.2290407479967423	-0.004760113428160585	-0.4108023249216355	0.2657262570614648	-2.099038298289986e-07	-1.338450650244231e-07	1.313222155211625e-06	1.200728315548688e-07	-2.216963202616924e-07	1.787491584080621e-08	-1.912724642362629e-07
